<mxfile host="app.diagrams.net" agent="Mozilla/5.0 (Windows NT 10.0; Win64; x64) AppleWebKit/537.36 (KHTML, like Gecko) Chrome/131.0.0.0 Safari/537.36" version="26.0.1">
  <diagram name="Page-1" id="qr1A99hE65AiKFn6rVNz">
    <mxGraphModel dx="2284" dy="738" grid="1" gridSize="10" guides="1" tooltips="1" connect="1" arrows="1" fold="1" page="1" pageScale="1" pageWidth="850" pageHeight="1100" math="0" shadow="0">
      <root>
        <mxCell id="0" />
        <mxCell id="1" parent="0" />
        <mxCell id="I6sipgyZDBRvlFjWpZZd-25" value="" style="edgeStyle=orthogonalEdgeStyle;rounded=0;orthogonalLoop=1;jettySize=auto;html=1;entryX=0.5;entryY=0;entryDx=0;entryDy=0;" edge="1" parent="1" source="I6sipgyZDBRvlFjWpZZd-2" target="I6sipgyZDBRvlFjWpZZd-3">
          <mxGeometry relative="1" as="geometry">
            <mxPoint x="480" y="320" as="targetPoint" />
          </mxGeometry>
        </mxCell>
        <mxCell id="I6sipgyZDBRvlFjWpZZd-2" value="TON BLOCKCHAIN" style="rounded=0;whiteSpace=wrap;html=1;" vertex="1" parent="1">
          <mxGeometry x="40" y="120" width="160" height="80" as="geometry" />
        </mxCell>
        <mxCell id="I6sipgyZDBRvlFjWpZZd-28" style="edgeStyle=orthogonalEdgeStyle;rounded=0;orthogonalLoop=1;jettySize=auto;html=1;entryX=0.5;entryY=0;entryDx=0;entryDy=0;" edge="1" parent="1" source="I6sipgyZDBRvlFjWpZZd-3" target="I6sipgyZDBRvlFjWpZZd-26">
          <mxGeometry relative="1" as="geometry" />
        </mxCell>
        <mxCell id="I6sipgyZDBRvlFjWpZZd-3" value="МОБИЛЬНОЕ ПРИЛОЖЕНИЕ(ИГРА&lt;span style=&quot;background-color: transparent; color: light-dark(rgb(0, 0, 0), rgb(255, 255, 255));&quot;&gt;)&lt;/span&gt;&lt;div&gt;&lt;span style=&quot;background-color: transparent; color: light-dark(rgb(0, 0, 0), rgb(255, 255, 255));&quot;&gt;с зачислением токенов&lt;/span&gt;&lt;/div&gt;" style="rounded=0;whiteSpace=wrap;html=1;" vertex="1" parent="1">
          <mxGeometry x="40" y="360" width="160" height="100" as="geometry" />
        </mxCell>
        <mxCell id="I6sipgyZDBRvlFjWpZZd-11" value="" style="edgeStyle=orthogonalEdgeStyle;rounded=0;orthogonalLoop=1;jettySize=auto;html=1;" edge="1" parent="1" source="I6sipgyZDBRvlFjWpZZd-10" target="I6sipgyZDBRvlFjWpZZd-3">
          <mxGeometry relative="1" as="geometry" />
        </mxCell>
        <mxCell id="I6sipgyZDBRvlFjWpZZd-32" style="edgeStyle=orthogonalEdgeStyle;rounded=0;orthogonalLoop=1;jettySize=auto;html=1;entryX=1;entryY=0.5;entryDx=0;entryDy=0;" edge="1" parent="1" source="I6sipgyZDBRvlFjWpZZd-10" target="I6sipgyZDBRvlFjWpZZd-26">
          <mxGeometry relative="1" as="geometry">
            <Array as="points">
              <mxPoint x="460" y="410" />
              <mxPoint x="460" y="550" />
            </Array>
          </mxGeometry>
        </mxCell>
        <mxCell id="I6sipgyZDBRvlFjWpZZd-35" style="edgeStyle=orthogonalEdgeStyle;rounded=0;orthogonalLoop=1;jettySize=auto;html=1;" edge="1" parent="1" source="I6sipgyZDBRvlFjWpZZd-10" target="I6sipgyZDBRvlFjWpZZd-36">
          <mxGeometry relative="1" as="geometry">
            <mxPoint x="570" y="410" as="targetPoint" />
          </mxGeometry>
        </mxCell>
        <mxCell id="I6sipgyZDBRvlFjWpZZd-10" value="Внутренняя реклама" style="rounded=0;whiteSpace=wrap;html=1;" vertex="1" parent="1">
          <mxGeometry x="260" y="380" width="160" height="60" as="geometry" />
        </mxCell>
        <mxCell id="I6sipgyZDBRvlFjWpZZd-20" value="" style="edgeStyle=orthogonalEdgeStyle;rounded=0;orthogonalLoop=1;jettySize=auto;html=1;entryX=0;entryY=0.5;entryDx=0;entryDy=0;" edge="1" parent="1" source="I6sipgyZDBRvlFjWpZZd-13" target="I6sipgyZDBRvlFjWpZZd-3">
          <mxGeometry relative="1" as="geometry">
            <mxPoint x="30" y="290" as="targetPoint" />
          </mxGeometry>
        </mxCell>
        <mxCell id="I6sipgyZDBRvlFjWpZZd-13" value="ПИАР(тикток и тп)" style="rounded=0;whiteSpace=wrap;html=1;" vertex="1" parent="1">
          <mxGeometry x="-190" y="380" width="160" height="60" as="geometry" />
        </mxCell>
        <mxCell id="I6sipgyZDBRvlFjWpZZd-23" value="" style="edgeStyle=orthogonalEdgeStyle;rounded=0;orthogonalLoop=1;jettySize=auto;html=1;entryX=0.5;entryY=0;entryDx=0;entryDy=0;" edge="1" parent="1" source="I6sipgyZDBRvlFjWpZZd-21" target="I6sipgyZDBRvlFjWpZZd-13">
          <mxGeometry relative="1" as="geometry">
            <mxPoint x="-80" y="250" as="targetPoint" />
          </mxGeometry>
        </mxCell>
        <mxCell id="I6sipgyZDBRvlFjWpZZd-21" value="ФЕЙК пиар&lt;br&gt;(видосы с эмуляторами, ФЕЙК КОММЕНТЫ(инсайды о проекте и его разработчиках, ГАЙДЫ НА YOUTUBE))" style="rounded=0;whiteSpace=wrap;html=1;" vertex="1" parent="1">
          <mxGeometry x="-190" y="200" width="160" height="135" as="geometry" />
        </mxCell>
        <mxCell id="I6sipgyZDBRvlFjWpZZd-26" value="ЛИСТИНГ(опционально)" style="rounded=0;whiteSpace=wrap;html=1;" vertex="1" parent="1">
          <mxGeometry x="40" y="520" width="160" height="60" as="geometry" />
        </mxCell>
        <mxCell id="I6sipgyZDBRvlFjWpZZd-36" value="" style="ellipse;whiteSpace=wrap;html=1;aspect=fixed;" vertex="1" parent="1">
          <mxGeometry x="540" y="260" width="300" height="300" as="geometry" />
        </mxCell>
        <mxCell id="I6sipgyZDBRvlFjWpZZd-37" value="ТОКЕНОМИКА" style="text;html=1;align=center;verticalAlign=middle;resizable=0;points=[];autosize=1;strokeColor=none;fillColor=none;" vertex="1" parent="1">
          <mxGeometry x="635" y="230" width="110" height="30" as="geometry" />
        </mxCell>
        <mxCell id="I6sipgyZDBRvlFjWpZZd-38" value="НАКРУТКА ИСТОРИИ" style="rounded=0;whiteSpace=wrap;html=1;" vertex="1" parent="1">
          <mxGeometry x="-340" y="200" width="120" height="135" as="geometry" />
        </mxCell>
        <mxCell id="I6sipgyZDBRvlFjWpZZd-40" style="edgeStyle=orthogonalEdgeStyle;rounded=0;orthogonalLoop=1;jettySize=auto;html=1;entryX=0;entryY=0.5;entryDx=0;entryDy=0;" edge="1" parent="1" source="I6sipgyZDBRvlFjWpZZd-39" target="I6sipgyZDBRvlFjWpZZd-21">
          <mxGeometry relative="1" as="geometry" />
        </mxCell>
        <mxCell id="I6sipgyZDBRvlFjWpZZd-39" value="НАКРУТКА ИСТОРИИ ПРОЕКТА&lt;div&gt;&lt;br&gt;&lt;/div&gt;" style="rounded=0;whiteSpace=wrap;html=1;" vertex="1" parent="1">
          <mxGeometry x="-340" y="200" width="120" height="135" as="geometry" />
        </mxCell>
      </root>
    </mxGraphModel>
  </diagram>
</mxfile>
